<svg xmlns="http://www.w3.org/2000/svg" viewBox="0 0 920 336" width="920" height="336" role="img" aria-label="How holys3 works: index pipeline builds a trigram index and content snapshot in S3; search plans grams, fetches posting and pack ranges, and verifies with a real regex">
<style>
text{font-family:system-ui,-apple-system,'Segoe UI',sans-serif}
.title{font-size:15px;font-weight:600;fill:#ffffff}
.chip{font-size:11px;font-weight:600;letter-spacing:0.4px;fill:#c3c2b7}
.bt{font-size:12px;font-weight:600;fill:#ffffff}
.bs{font-size:10.5px;fill:#898781}
.note{font-size:11px;fill:#898781}
.mid{font-size:12px;fill:#c3c2b7}
.box{fill:#222220;stroke:rgba(255,255,255,0.10)}
.card{fill:#1a1a19;stroke:rgba(255,255,255,0.10)}
.arrow{stroke:#898781;stroke-width:1.2}
.rule{stroke:#2c2c2a;stroke-width:1}
</style>
<defs>
<marker id="ah" markerWidth="8" markerHeight="8" refX="6" refY="3" orient="auto"><path d="M0 0 L6 3 L0 6 z" fill="#898781"/></marker>
</defs>
<rect class="card" x="0.5" y="0.5" width="919" height="335" rx="12"/>
<text class="title" x="28" y="34">How holys3 works</text>

<circle cx="32" cy="52" r="4" fill="#3987e5"/>
<text class="chip" x="42" y="56">INDEX &#8212; once, then incremental diffs</text>

<rect class="box" x="28.5" y="68.5" width="150" height="64" rx="4"/>
<text class="bt" x="103" y="92" text-anchor="middle">S3 source objects</text>
<text class="bs" x="103" y="106" text-anchor="middle">.gz .zst .bz2 .xz .lz4 .snappy</text>
<text class="bs" x="103" y="119" text-anchor="middle">parquet &#183; avro &#183; orc &#183; tar &#183; zip</text>

<rect class="box" x="202.5" y="68.5" width="150" height="64" rx="4"/>
<text class="bt" x="277" y="92" text-anchor="middle">canonical decode</text>
<text class="bs" x="277" y="106" text-anchor="middle">decompress &#183; unpack archives</text>
<text class="bs" x="277" y="119" text-anchor="middle">columnar rows &#8594; JSON lines</text>

<rect class="box" x="376.5" y="68.5" width="150" height="64" rx="4"/>
<text class="bt" x="451" y="92" text-anchor="middle">grams + snapshot</text>
<text class="bs" x="451" y="106" text-anchor="middle">trigram extraction</text>
<text class="bs" x="451" y="119" text-anchor="middle">128 KiB zstd frames &#183; SHA-256</text>

<rect class="box" x="550.5" y="68.5" width="150" height="64" rx="4"/>
<text class="bt" x="625" y="92" text-anchor="middle">immutable segments</text>
<text class="bs" x="625" y="106" text-anchor="middle">FST term dict &#183; postings</text>
<text class="bs" x="625" y="119" text-anchor="middle">doc tables &#183; content packs</text>

<rect class="box" x="724.5" y="68.5" width="150" height="64" rx="4"/>
<text class="bt" x="799" y="92" text-anchor="middle">atomic root swap</text>
<text class="bs" x="799" y="106" text-anchor="middle">S3 conditional write (CAS)</text>
<text class="bs" x="799" y="119" text-anchor="middle">racing writers fail loudly</text>

<line class="arrow" x1="181" y1="100" x2="197" y2="100" marker-end="url(#ah)"/>
<line class="arrow" x1="355" y1="100" x2="371" y2="100" marker-end="url(#ah)"/>
<line class="arrow" x1="529" y1="100" x2="545" y2="100" marker-end="url(#ah)"/>
<line class="arrow" x1="703" y1="100" x2="719" y2="100" marker-end="url(#ah)"/>

<text class="note" x="28" y="152">stored in s3://bucket/prefix/.holys3/ or a separate index bucket &#183; unchanged bucket = one listing &#183; deletions vanish immediately</text>

<line class="rule" x1="28" y1="176.5" x2="150" y2="176.5"/>
<text class="mid" x="460" y="181" text-anchor="middle">grams only narrow candidates &#183; the snapshot decides matches &#183; search never reads source objects</text>
<line class="rule" x1="770" y1="176.5" x2="892" y2="176.5"/>

<circle cx="32" cy="206" r="4" fill="#199e70"/>
<text class="chip" x="42" y="210">SEARCH &#8212; every query, ~100 ms on 25k objects</text>

<rect class="box" x="28.5" y="222.5" width="150" height="64" rx="4"/>
<text class="bt" x="103" y="246" text-anchor="middle">regex</text>
<text class="bs" x="103" y="260" text-anchor="middle">holys3 'req-7f3e[0-9a-f]+'</text>
<text class="bs" x="103" y="273" text-anchor="middle">rg flags &#183; -g &#183; --since 6h</text>

<rect class="box" x="202.5" y="222.5" width="150" height="64" rx="4"/>
<text class="bt" x="277" y="246" text-anchor="middle">gram plan</text>
<text class="bs" x="277" y="260" text-anchor="middle">required literals &#8594; trigrams</text>
<text class="bs" x="277" y="273" text-anchor="middle">incl. inner literals (Cox)</text>

<rect class="box" x="376.5" y="222.5" width="150" height="64" rx="4"/>
<text class="bt" x="451" y="246" text-anchor="middle">FST + postings</text>
<text class="bs" x="451" y="260" text-anchor="middle">rarest grams per AND-group</text>
<text class="bs" x="451" y="273" text-anchor="middle">coalesced ranged GETs</text>

<rect class="box" x="550.5" y="222.5" width="150" height="64" rx="4"/>
<text class="bt" x="625" y="246" text-anchor="middle">candidates</text>
<text class="bs" x="625" y="260" text-anchor="middle">pruned by key scope, time</text>
<text class="bs" x="625" y="273" text-anchor="middle">window &amp; tombstones</text>

<rect class="box" x="724.5" y="222.5" width="150" height="64" rx="4"/>
<text class="bt" x="799" y="246" text-anchor="middle">verify</text>
<text class="bs" x="799" y="260" text-anchor="middle">fetch pack frames &#183; SHA-256</text>
<text class="bs" x="799" y="273" text-anchor="middle">zstd decode &#8594; real regex</text>

<line class="arrow" x1="181" y1="254" x2="197" y2="254" marker-end="url(#ah)"/>
<line class="arrow" x1="355" y1="254" x2="371" y2="254" marker-end="url(#ah)"/>
<line class="arrow" x1="529" y1="254" x2="545" y2="254" marker-end="url(#ah)"/>
<line class="arrow" x1="703" y1="254" x2="719" y2="254" marker-end="url(#ah)"/>

<text class="note" x="460" y="314" text-anchor="middle">&#8594; exact matches, rendered like ripgrep &#8212; same flags, exit codes, and --json wire format</text>
</svg>
